<?xml version="1.0" standalone="no"?>
<!DOCTYPE svg PUBLIC "-//W3C//DTD SVG 20010904//EN"
 "http://www.w3.org/TR/2001/REC-SVG-20010904/DTD/svg10.dtd">
<svg version="1.0" xmlns="http://www.w3.org/2000/svg"
 width="356.000000pt" height="352.000000pt" viewBox="0 0 356.000000 352.000000"
 preserveAspectRatio="xMidYMid meet">

<g transform="translate(0.000000,352.000000) scale(0.100000,-0.100000)"
fill="none" stroke="none">
<path fill="#ded100" d="M1832 3263 c-36 -7 -69 -85 -81 -194 -19 -171 -50 -552 -67 -835 -19
-306 -21 -580 -9 -1103 l7 -344 -38 29 c-42 33 -140 94 -150 94 -4 0 -27 15
-53 33 -25 18 -68 46 -96 62 -27 16 -54 33 -60 37 -5 4 -66 45 -135 90 -171
112 -221 154 -323 272 -128 148 -226 293 -292 433 -19 40 -45 89 -59 110 -14
21 -35 65 -47 98 -12 33 -25 65 -29 70 -4 6 -11 21 -15 35 -8 26 -31 84 -44
110 -13 24 -54 18 -68 -10 -20 -41 -33 -148 -33 -265 0 -188 24 -295 95 -430
65 -121 81 -141 300 -360 158 -159 206 -204 238 -221 9 -5 44 -34 78 -64 60
-53 90 -77 244 -193 102 -77 121 -90 225 -161 95 -65 113 -81 147 -133 50 -78
138 -179 162 -185 108 -28 104 -28 146 -3 56 32 312 220 355 260 19 18 45 38
56 44 12 6 77 56 145 111 68 56 142 116 163 133 89 73 115 95 190 172 43 44
92 100 109 125 17 25 33 47 36 50 11 9 118 184 140 227 67 134 142 336 163
443 29 143 31 168 18 199 -18 44 -60 43 -82 -1 -14 -30 -107 -161 -140 -198
-7 -8 -31 -37 -52 -65 -73 -93 -314 -352 -467 -501 -208 -202 -376 -360 -417
-393 l-42 -33 -25 56 c-62 140 -83 288 -91 641 -7 264 -3 381 32 1070 21 405
7 617 -44 667 -19 19 -56 28 -90 21z"/>
<path fill="#0b3535" d="M2023 2913 c28 -302 32 -409 32 -993 0 -344 -4 -694 -8 -777 -5 -96
-4 -153 2 -153 14 0 174 126 286 226 242 215 485 490 644 727 67 99 81 137 51
137 -22 0 -289 128 -383 184 -206 121 -267 187 -431 465 -37 63 -77 128 -89
145 -30 44 -89 106 -100 106 -6 0 -7 -28 -4 -67z"/>
<path fill="#0b3535" d="M1510 2831 c-208 -221 -484 -462 -583 -510 -80 -38 -291 -81 -403
-81 -28 0 -66 -3 -83 -6 l-31 -7 26 -46 c42 -72 256 -388 351 -518 193 -266
311 -392 494 -528 103 -77 296 -182 309 -168 4 4 4 53 -1 108 -15 186 -22
1128 -10 1315 16 247 30 382 50 483 10 48 15 87 11 87 -5 0 -63 -58 -130 -129z"/>
</g>
</svg>
